<svg width="22" height="21" viewBox="0 0 22 21" fill="none" xmlns="http://www.w3.org/2000/svg">
<path d="M10.5278 0.916992C8.64343 0.916992 6.80132 1.47579 5.23447 2.52273C3.66762 3.56966 2.44641 5.05771 1.72527 6.7987C1.00413 8.5397 0.815447 10.4554 1.18308 12.3036C1.55072 14.1518 2.45816 15.8495 3.79065 17.182C5.12315 18.5145 6.82086 19.422 8.66913 19.7896C10.5173 20.1573 12.433 19.9686 14.174 19.2474C15.915 18.5263 17.403 17.3051 18.45 15.7382C19.4969 14.1714 20.0557 12.3293 20.0557 10.4448C20.0557 7.91791 19.0519 5.49446 17.2651 3.70764C15.4782 1.92082 13.0548 0.916992 10.5278 0.916992ZM15.0834 13.7736C14.4879 15.5601 12.9336 16.0603 11.57 16.1556V17.3466C11.57 17.544 11.4915 17.7333 11.3519 17.8729C11.2123 18.0125 11.023 18.0909 10.8256 18.0909C10.6282 18.0909 10.4388 18.0125 10.2992 17.8729C10.1597 17.7333 10.0812 17.544 10.0812 17.3466V16.1556C8.71383 16.0274 7.41673 15.4899 6.35943 14.6133C6.28788 14.5464 6.23019 14.4661 6.18967 14.3769C6.14915 14.2878 6.12659 14.1915 6.12327 14.0937C6.11996 13.9958 6.13595 13.8982 6.17034 13.8065C6.20473 13.7148 6.25684 13.6308 6.3237 13.5592C6.39057 13.4877 6.47087 13.43 6.56002 13.3895C6.64918 13.349 6.74544 13.3264 6.84331 13.3231C6.94119 13.3198 7.03876 13.3358 7.13045 13.3702C7.22215 13.4045 7.30613 13.4567 7.37773 13.5235C8.15703 14.1511 9.09483 14.5509 10.0872 14.6788V10.9391C9.29633 10.8172 8.53973 10.5312 7.86603 10.0994C7.29973 9.7443 6.87577 9.20185 6.66797 8.56648C6.46017 7.9311 6.48163 7.24299 6.72864 6.62181C7.07998 5.72261 8.16973 4.69837 10.0872 4.53163V3.44783C10.0872 3.25042 10.1656 3.06108 10.3052 2.92149C10.4448 2.78189 10.6341 2.70347 10.8315 2.70347C11.029 2.70347 11.2183 2.78189 11.3579 2.92149C11.4975 3.06108 11.5759 3.25042 11.5759 3.44783V4.55545C12.6404 4.67337 13.6509 5.08582 14.4938 5.74643C14.6107 5.8839 14.6736 6.05911 14.6709 6.2395C14.6683 6.41988 14.6002 6.59316 14.4793 6.72711C14.3585 6.86106 14.1931 6.94657 14.0139 6.96773C13.8348 6.98888 13.654 6.94425 13.5053 6.84214C12.9367 6.42629 12.2737 6.15823 11.5759 6.06204V9.71241C11.9332 9.78982 12.3143 9.87319 12.7133 9.99824C13.1748 10.1133 13.6079 10.3216 13.9858 10.6105C14.3637 10.8993 14.6784 11.2624 14.9107 11.6775C15.2423 12.3261 15.3044 13.0795 15.0834 13.7736Z" fill="#D6D6D6"/>
<path d="M12.266 11.4216C12.0278 11.3501 11.7956 11.2906 11.5693 11.2429V14.673C12.7603 14.5539 13.3975 14.137 13.6714 13.3033C13.7627 12.9898 13.7307 12.6532 13.5821 12.3624C13.4367 12.1256 13.2454 11.9203 13.0193 11.7587C12.7933 11.5971 12.5371 11.4825 12.266 11.4216Z" fill="#D6D6D6"/>
<path d="M8.10928 7.15796C7.98498 7.46668 7.97688 7.80997 8.08638 8.12422C8.19588 8.43847 8.41558 8.70238 8.70478 8.86703C9.12578 9.13677 9.59488 9.32278 10.0863 9.41488V6.00867C8.83578 6.15754 8.25818 6.77685 8.10928 7.15796Z" fill="#D6D6D6"/>
</svg>
