<svg width="20" height="20" viewBox="0 0 20 20" fill="none" xmlns="http://www.w3.org/2000/svg">
<g clip-path="url(#clip0_47_10785)">
<mask id="mask0_47_10785" style="mask-type:luminance" maskUnits="userSpaceOnUse" x="0" y="0" width="20" height="20">
<path d="M19.686 0.174866H0.209137V19.6517H19.686V0.174866Z" fill="white"/>
</mask>
<g mask="url(#mask0_47_10785)">
<path opacity="0.3" d="M9.13599 3.42096H3.45526V9.1017L10.7591 16.4136L16.4398 10.7248L9.13599 3.42096ZM5.48412 6.66709C4.81052 6.66709 4.2668 6.12338 4.2668 5.44978C4.2668 4.77622 4.81052 4.2325 5.48412 4.2325C6.15767 4.2325 6.70138 4.77622 6.70138 5.44978C6.70138 6.12338 6.15767 6.66709 5.48412 6.66709ZM10.7591 9.66978L11.246 9.18285C11.5463 8.88258 11.9683 8.69591 12.4227 8.69591C13.3397 8.69591 14.0864 9.44254 14.0864 10.3596C14.0864 10.8221 13.8997 11.2361 13.5994 11.5363L10.7591 14.3767L7.91869 11.5363C7.61842 11.2279 7.4318 10.814 7.4318 10.3596C7.4318 9.44254 8.17838 8.69591 9.09542 8.69591C9.55798 8.69591 9.97189 8.88258 10.2722 9.19097L10.7591 9.66978Z" fill="#C63436"/>
<path d="M17.5841 9.5725L10.2803 2.26866C9.98815 1.97651 9.58237 1.79797 9.136 1.79797H3.45528C2.56259 1.79797 1.83221 2.52835 1.83221 3.42104V9.10176C1.83221 9.54812 2.01075 9.95391 2.31102 10.2542L9.61481 17.558C9.90701 17.8501 10.3127 18.0287 10.7591 18.0287C11.2055 18.0287 11.6112 17.8501 11.9033 17.5498L17.5841 11.8691C17.8843 11.577 18.0629 11.1712 18.0629 10.7249C18.0629 10.2785 17.8762 9.86464 17.5841 9.5725ZM10.7591 16.4137L3.45528 9.10176V3.42104H9.136V3.41293L16.4399 10.7167L10.7591 16.4137Z" fill="#C63436"/>
<path d="M5.48506 6.66711C6.15737 6.66711 6.70237 6.12206 6.70237 5.4498C6.70237 4.77748 6.15737 4.23248 5.48506 4.23248C4.81277 4.23248 4.26776 4.77748 4.26776 5.4498C4.26776 6.12206 4.81277 6.66711 5.48506 6.66711Z" fill="#C63436"/>
<path d="M7.43182 10.3595C7.43182 10.8221 7.61849 11.2279 7.91876 11.5363L10.7591 14.3766L13.5995 11.5363C13.8998 11.236 14.0864 10.814 14.0864 10.3595C14.0864 9.44249 13.3398 8.69592 12.4228 8.69592C11.9602 8.69592 11.5463 8.88254 11.246 9.1828L10.7591 9.66974L10.2722 9.19093C9.97196 8.88254 9.54993 8.69592 9.09549 8.69592C8.17845 8.69592 7.43182 9.44249 7.43182 10.3595Z" fill="#C63436"/>
</g>
</g>
<defs>
<clipPath id="clip0_47_10785">
<rect width="19.91" height="19.91" fill="white"/>
</clipPath>
</defs>
</svg>
